<svg height="512" viewBox="0 0 60 56" width="512" xmlns="http://www.w3.org/2000/svg"><g id="038---Cut-Finger" fill="none"><g id="Icons" transform="translate(1 1)"><path id="Shape" d="m31 29.09c0 8.41 0 6.27-.07 9.88-.0986201 1.4731677-.7067144 2.8661279-1.72 3.94l-3.06 3.09c-1.3682916 1.3697059-2.1408993 3.2239646-2.15 5.16v1.84c0 .5522847-.4477153 1-1 1h-19c-.55228475 0-1-.4477153-1-1 0-3.47.26-5.29-1.15-7.62-.85-1.38-1.85-3.98-1.85-9.03v-12.35c.00000002-1.6568542 1.34314577-3 3-3s2.99999998 1.3431458 3 3v-3c.00000003-1.6568542 1.34314578-2.9999999 3-2.9999999 1.6568542 0 3 1.3431457 3 2.9999999 0-1.19-.1-2.14.88-3.12.8579473-.8568812 2.1473683-1.1130328 3.2676941-.6491479 1.1203257.4638849 1.8512394 1.5565813 1.8523059 2.7691479 0 .22-1.36-.57 12.21 6.56.5136253.7437943.789127 1.6260973.79 2.53z" fill="#ffe0b2"/><path id="Shape" d="m31 29.09c-.000873-.9039027-.2763747-1.7862057-.79-2.53-13.57-7.13-12.21-6.34-12.21-6.56-.0028792-1.0703537-.5758134-2.0580949-1.5034903-2.5920245-.927677-.5339296-2.0695551-.5331582-2.9965097.0020245.9364955.5235772 1.5119217 1.5171464 1.5 2.59 0 .22-1.36-.57 12.21 6.56.5136253.7437943.789127 1.6260973.79 2.53 0 8.41 0 6.27-.07 9.88-.0986201 1.4731677-.7067144 2.8661279-1.72 3.94l-3.06 3.09c-1.3682916 1.3697059-2.1408993 3.2239646-2.15 5.16v1.84c0 .5522847-.4477153 1-1 1h3c.5522847 0 1-.4477153 1-1v-1.84c.0091007-1.9360354.7817084-3.7902941 2.15-5.16l3.06-3.06c1.0132856-1.0738721 1.6213799-2.4668323 1.72-3.94.07-3.64.07-1.5.07-9.91z" fill="#dfc49c"/><path id="Shape" d="m24 12.5v9.71l-3-.28-3-.28v-9.15z" fill="#dfc49c"/><path id="Shape" d="m21 12.5v9.43l-3-.28v-9.15z" fill="#ffe0b2"/><path id="Shape" d="m34.12 26.93-13.54-1.28c-1.1527708-.1064275-2.2158887-.6669455-2.9549815-1.5579838-.7390927-.8910382-1.0934743-2.0394345-.9850185-3.1920162l.08-.87 16.9 1.59z" fill="#3f51b5"/><path id="Shape" d="m25 4v9c0 .5522847-.4477153 1-1 1h-6c-.5522847 0-1-.4477153-1-1v-9c0-2.209139 1.790861-4 4-4s4 1.790861 4 4z" fill="#707070"/><path id="Shape" d="m22 4v9c0 .5522847-.4477153 1-1 1h-3c-.5522847 0-1-.4477153-1-1v-9c.0049438-1.62945093.9978071-3.09303423 2.51-3.7 1.5043413.61326357 2.4883596 2.07545938 2.49 3.7z" fill="#9e9e9e"/><path id="Shape" d="m25 4v4l-8 3v-5l4.91-1.84 3-1.12c.0703213.31493092.1005609.63748637.09.96z" fill="#cfd8dc"/><path id="Shape" d="m22 5v4l-5 1.88v-4.88l4.91-1.84c.0631407.27545098.0933522.55742478.09.84z" fill="#f5f5f5"/><path id="Shape" d="m55.51 21.3c-3.83-3.81-9.8-3.13-11.78 1.27l-4.8-.45.49 5.3 4.13.39c1.82 5.51 8.78 7.77 12.57 4 2.73-2.75 2.45-7.44-.61-10.51zm-1.61 6.44c-.34 1.73-2.38 2.59-4.52 1.31s-2.94-4.4-1.32-5.69c2.43-1.94 6.45 1.27 5.84 4.38z" fill="#3f51b5"/><path id="Shape" d="m43.17 33.64c-.941629-.9492342-2.0922985-1.664978-3.36-2.09l-.39-4.13-.49-5.3v-.24l-1.25-13.3c-.1035587-1.15957585-.6676039-2.22925289-1.5659525-2.96973271-.8983486-.74047981-2.0560262-1.08996333-3.2140475-.97026729l-.9.08 1.59 16.9.47 5.06v.25l.45 4.8c-.6769327.312485-1.2931279.7424674-1.82 1.27-2.73 2.73-2.45 7.42.61 10.49s7.76 3.34 10.49.61 2.45-7.4-.62-10.46zm-1.55 6.49c-.1695685.8514215-.7910825 1.5419926-1.62 1.8-.9897111.2414942-2.0352042.0642306-2.89-.49-1.5633822-.8924266-2.4053914-2.6642373-2.11-4.44.1298411-.4843029.4099355-.9149481.8-1.23.345588-.2880676.758365-.4841367 1.2-.57 1.2949015-.1350141 2.5744969.3686167 3.43 1.35.5167606.5075963.9042621 1.1317137 1.13 1.82.165395.5726529.1860118 1.1774128.06 1.76z" fill="#02a9f4"/></g><g id="Layer_10" fill="#000"><path id="Shape" d="m3 54c0 1.1045695.8954305 2 2 2h19c1.1045695 0 2-.8954305 2-2v-1.84c.0059791-1.679978.6743423-3.2897992 1.86-4.48 3.25-3.25 3.48-3.36 4.14-4.56 1.6413407 2.9548964 4.7305001 4.8137247 8.11 4.88 7.18 0 10.21-8.61 4.77-14.06-.8984263-.894956-1.9612141-1.6080085-3.13-2.1l-.22-2.3 2.3.22c2.47 5.9 9.93 7.82 14 3.74 5-5 .77-14.23-6.63-14.67-2.8666088-.2406147-5.613982 1.1973721-7.05 3.69l-3.31-.31-1.19-12.72c-.1291666-1.417671-.8180041-2.72540857-1.9140576-3.6337817-1.0960536-.90837314-2.5089349-1.34247103-3.9259424-1.2062183-.77.07-1.21 0-1.55.43-.1694301.20727435-.2486761.47382922-.22.74l1.47 15.69-7.51-.71v-5.08c.6150891-.3551046.9957131-1.0097779 1-1.72 0-9 .08-9.69-.21-10.35-.7062202-2.36325287-3.0302854-3.85844961-5.4736819-3.52151546s-4.2760577 2.40532603-4.3163181 4.87151546v9c.0042869.7102221.3849109 1.3648954 1 1.72v1.84c-.9089355-.5379548-1.9958017-.6884475-3.0167128-.4177087-1.0209111.2707389-1.8903742.9400372-2.4132872 1.8577087-1.1234969-.9589379-2.68402223-1.2206696-4.0589061-.6807609-1.37488388.5399087-2.34032273 1.7935716-2.5110939 3.2607609-1.23079927-.7107167-2.74629381-.7149601-3.98105377-.011147-1.23475995.7038132-2.00332581 2.009971-2.01894623 3.431147v12.35c0 5.21 1.09 8.07 2 9.55 1.26 2.1 1 3.72 1 7.1zm31.51-21.85c-.5547657.3106348-1.0630788.6977607-1.51 1.15 0-3.26.07-3.61-.19-4.59l1.39.13zm10.13-7.59c.4250651.0367984.8266613-.2001434 1-.59 1.72-3.86 6.93-4.18 10.15-1 2.67 2.67 3 6.74.62 9.07-3.22 3.22-9.28 1.29-10.93-3.59-.1243399-.374528-.4573127-.6409062-.85-.68l-3.3-.31-.33-3.24zm-7-14.89 2.16 23c.0353205.3964479.3023839.7342045.68.86 4.84 1.62 6.83 7.68 3.59 10.92-3.57 3.57-10.33.72-11.19-4.68.0046785-.0197264.0046785-.0402736 0-.06-.4698203-2.4722486.8045344-4.9467236 3.09-6 .3898566-.1733387.6267984-.5749349.59-1l-2.44-26c1.77772-.11249261 3.3308956 1.18988694 3.53 2.96zm-3.64 17.15-12.33-1.17c-1.7861267-.1792942-3.111093-1.7383379-3-3.53l15.03 1.41zm-14-6.58v-4.24h4v4.62zm5-11.93-6 2.25v-2.87l6-2.25zm-6 4.38 6-2.25v3.56h-6zm5.56-9.22-5.56 2.09v-.56c.0150659-1.3376928.9140236-2.5037613 2.2038567-2.85869738 1.289833-.35493609 2.6588108.18704229 3.3561433 1.32869738zm-22.56 21.53c0-1.1045695.8954305-2 2-2s2 .8954305 2 2v9c0 .5522847.44771525 1 1 1s1-.4477153 1-1v-12c0-1.1045695.8954305-2 2-2s2 .8954305 2 2v10c0 .5522847.4477153 1 1 1s1-.4477153 1-1v-11c-.0147922-.9179805.5973151-1.7281334 1.4844151-1.9646934s1.8213272.161237 2.2655849.9646934c-.2416584-.0037001-.4775741.0737648-.67.22-.38.32-.35.62-.43 1.55-.1602696 1.5002108.3313815 2.9970153 1.35 4.11v5.12c0 .5522847.4477153 1 1 1s1-.4477153 1-1v-3.73c1 .4 1.36.36 4 .61v8.12c0 .5522847.4477153 1 1 1s1-.4477153 1-1v-7.93l4.61.44c.52 1 .39 1.1.39 8.46-.2140842.9859746-.2445939 2.002965-.09 3-.0853903 1.2065762-.5832456 2.3470533-1.41 3.23l-3.06 3.06c-1.5563408 1.5700847-2.4327512 3.6892738-2.44 5.9v1.84h-19c0-3.37.29-5.53-1.3-8.14-.77-1.27-1.7-3.77-1.7-8.51z"/><path id="Shape" d="m49.87 30.91c3.54 2.13 7-.53 5.88-4.23-.71-2.28-3.31-4.3-5.69-3.85-1.3248762.2318725-2.3986006 1.204449-2.76 2.5-.4378539 2.2197827.5984928 4.4699051 2.57 5.58zm-.64-5.06c.31-1.15 2-1.71 3.73 0 .768415.668737 1.1449846 1.6817093 1 2.69-.19 1-1.47 1.58-3 .64-1.208836-.6464016-1.8961028-1.9692909-1.73-3.33z"/><path id="Shape" d="m38 26c.2489255-.2487776.3234538-.6230206.1888247-.9481809-.1346292-.3251602-.4518955-.5371848-.8038247-.5371848s-.6691955.2120246-.8038247.5371848c-.1346291.3251603-.0601008.6994033.1888247.9481809.3397143.3395123.8902857.3395123 1.23 0z"/><path id="Shape" d="m36.16 36c-2.23 1.78-1.41 5.61 1.43 7.33 3.54 2.14 7-.53 5.88-4.23-.92-2.99-4.73-5.2-7.31-3.1zm2.31 1.19c1.4237922.1803139 2.6217153 1.1533841 3.09 2.51.2031736.4197201.2238957.9047367.057262 1.3402568-.1666338.43552-.5058133.7828351-.937262.9597432-1.73.56-4.26-1.74-3.73-3.74.1960042-.6707638.8215801-1.1234833 1.52-1.1z"/></g></g></svg>